<svg xmlns="http://www.w3.org/2000/svg" version="1.1" xmlns:xlink="http://www.w3.org/1999/xlink" xmlns:svgjs="http://svgjs.dev/svgjs" width="2000" height="338" viewBox="0 0 2000 338"><g transform="matrix(1,0,0,1,-1.2121212121212466,-0.06134157782614125)"><svg viewBox="0 0 396 67" data-background-color="#fffff5" preserveAspectRatio="xMidYMid meet" height="338" width="2000" xmlns="http://www.w3.org/2000/svg" xmlns:xlink="http://www.w3.org/1999/xlink"><g id="tight-bounds" transform="matrix(1,0,0,1,0.2400000000000091,0.012159425190390039)"><svg viewBox="0 0 395.52 66.97568114961923" height="66.97568114961923" width="395.52"><g><svg viewBox="0 0 496.75036360184055 84.11760205186664" height="66.97568114961923" width="395.52"><g transform="matrix(1,0,0,1,101.23036360184052,11.625515189512686)"><svg viewBox="0 0 395.52000000000004 60.86657167284127" height="60.86657167284127" width="395.52000000000004"><g id="textblocktransform"><svg viewBox="0 0 395.52000000000004 60.86657167284127" height="60.86657167284127" width="395.52000000000004" id="textblock"><g><svg viewBox="0 0 395.52000000000004 60.86657167284127" height="60.86657167284127" width="395.52000000000004"><g transform="matrix(1,0,0,1,0,0)"><svg width="395.52000000000004" viewBox="1.5 -42.3 350.88 54" height="60.86657167284127" data-palette-color="#091627"><path d="M37.7-28.3L46.6-28.3 39.45 0.45 29.05 0.45 24.05-16.05 19.1 0.45 8.7 0.45 1.5-28.3 10.4-28.3 14.1-10.5 18.85-28.3 29.25-28.3 34-10.5 37.7-28.3ZM65 0.85Q60.1 0.85 56.7-1.13 53.3-3.1 51.57-6.5 49.85-9.9 49.85-14.15L49.85-14.15Q49.85-18.35 51.57-21.75 53.3-25.15 56.7-27.13 60.1-29.1 65-29.1L65-29.1Q69.85-29.1 73.25-27.13 76.65-25.15 78.35-21.75 80.05-18.35 80.05-14.15L80.05-14.15Q80.05-9.9 78.35-6.5 76.65-3.1 73.25-1.13 69.85 0.85 65 0.85L65 0.85ZM65-6.55Q67.95-6.55 69.47-8.5 71-10.45 71-14.15L71-14.15Q71-17.8 69.47-19.75 67.95-21.7 65-21.7L65-21.7Q62-21.7 60.45-19.75 58.9-17.8 58.9-14.15L58.9-14.15Q58.9-10.45 60.45-8.5 62-6.55 65-6.55L65-6.55ZM101.9-28.9Q107.55-28.9 110.35-26.05 113.15-23.2 113.15-17L113.15-17 113.15 0 104.45 0 104.45-17Q104.45-19.05 103.42-20.13 102.4-21.2 99.95-21.2L99.95-21.2Q97.05-21.2 94-18.8L94-18.8 94 0 85.3 0 85.3-28.3 94-28.3 94-26.05Q95.85-27.5 97.77-28.2 99.7-28.9 101.9-28.9L101.9-28.9ZM138.74-42.3L147.44-42.3 147.44 0 138.74 0 138.74-1.85Q135.19 0.85 131.14 0.85L131.14 0.85Q127.34 0.85 124.42-0.83 121.49-2.5 119.82-5.88 118.14-9.25 118.14-14.15L118.14-14.15Q118.14-19 119.82-22.38 121.49-25.75 124.42-27.43 127.34-29.1 131.14-29.1L131.14-29.1Q135.19-29.1 138.74-26.4L138.74-26.4 138.74-42.3ZM133.04-6.85Q135.89-6.85 138.74-8.9L138.74-8.9 138.74-19.35Q135.89-21.4 133.04-21.4L133.04-21.4Q130.14-21.4 128.67-19.55 127.19-17.7 127.19-14.15L127.19-14.15Q127.19-10.55 128.67-8.7 130.14-6.85 133.04-6.85L133.04-6.85ZM162.04-11.45Q162.59-9.05 164.32-7.7 166.04-6.35 169.39-6.35L169.39-6.35Q171.34-6.35 173.12-6.83 174.89-7.3 177.19-8.45L177.19-8.45 179.44-1.75Q176.84-0.3 174.29 0.28 171.74 0.85 168.19 0.85L168.19 0.85Q163.24 0.85 159.77-1.03 156.29-2.9 154.49-6.3 152.69-9.7 152.69-14.2L152.69-14.2Q152.69-18.9 154.54-22.28 156.39-25.65 159.54-27.38 162.69-29.1 166.59-29.1L166.59-29.1Q172.84-29.1 176.39-25.48 179.94-21.85 179.94-14.9L179.94-14.9 179.94-11.45 162.04-11.45ZM166.59-21.9Q164.79-21.9 163.67-21 162.54-20.1 162.09-17.9L162.09-17.9 170.79-17.9Q170.59-20 169.57-20.95 168.54-21.9 166.59-21.9L166.59-21.9ZM201.34-28.9L202.49-28.9 202.49-21.2 201.34-21.2Q197.49-21.2 193.64-18.45L193.64-18.45 193.64 0 184.94 0 184.94-28.3 193.64-28.3 193.64-25.8Q195.49-27.35 197.36-28.13 199.24-28.9 201.34-28.9L201.34-28.9ZM226.34-28.3L235.04-28.3 235.04 11.7 226.34 11.7 226.34-1.85Q222.79 0.85 218.74 0.85L218.74 0.85Q214.94 0.85 212.01-0.83 209.09-2.5 207.41-5.88 205.74-9.25 205.74-14.15L205.74-14.15Q205.74-19 207.41-22.38 209.09-25.75 212.01-27.43 214.94-29.1 218.74-29.1L218.74-29.1Q222.79-29.1 226.34-26.4L226.34-26.4 226.34-28.3ZM220.64-6.85Q223.49-6.85 226.34-8.9L226.34-8.9 226.34-19.35Q223.49-21.4 220.64-21.4L220.64-21.4Q217.74-21.4 216.26-19.55 214.79-17.7 214.79-14.15L214.79-14.15Q214.79-10.55 216.26-8.7 217.74-6.85 220.64-6.85L220.64-6.85ZM260.93-28.3L269.63-28.3 269.63 0 260.93 0 260.93-2.25Q259.08-0.8 257.16-0.1 255.23 0.6 253.03 0.6L253.03 0.6Q247.38 0.6 244.58-2.25 241.78-5.1 241.78-11.3L241.78-11.3 241.78-28.3 250.48-28.3 250.48-11.3Q250.48-9.25 251.51-8.18 252.53-7.1 254.98-7.1L254.98-7.1Q257.88-7.1 260.93-9.5L260.93-9.5 260.93-28.3ZM284.23-11.45Q284.78-9.05 286.51-7.7 288.23-6.35 291.58-6.35L291.58-6.35Q293.53-6.35 295.31-6.83 297.08-7.3 299.38-8.45L299.38-8.45 301.63-1.75Q299.03-0.3 296.48 0.28 293.93 0.85 290.38 0.85L290.38 0.85Q285.43 0.85 281.96-1.03 278.48-2.9 276.68-6.3 274.88-9.7 274.88-14.2L274.88-14.2Q274.88-18.9 276.73-22.28 278.58-25.65 281.73-27.38 284.88-29.1 288.78-29.1L288.78-29.1Q295.03-29.1 298.58-25.48 302.13-21.85 302.13-14.9L302.13-14.9 302.13-11.45 284.23-11.45ZM288.78-21.9Q286.98-21.9 285.86-21 284.73-20.1 284.28-17.9L284.28-17.9 292.98-17.9Q292.78-20 291.76-20.95 290.73-21.9 288.78-21.9L288.78-21.9ZM317.83 0.85Q314.28 0.85 311.55 0.28 308.83-0.3 305.88-1.7L305.88-1.7 305.88-9.35Q308.73-7.75 311.63-7.05 314.53-6.35 317.83-6.35L317.83-6.35Q321.08-6.35 321.08-8.3L321.08-8.3Q321.08-9.1 320.63-9.5 320.18-9.9 319.18-10.15L319.18-10.15 314.33-11.15Q310.08-12 308.13-14.05 306.18-16.1 306.18-19.65L306.18-19.65Q306.18-24.45 309.15-26.78 312.13-29.1 318.18-29.1L318.18-29.1Q320.68-29.1 323.4-28.6 326.13-28.1 328.58-27.3L328.58-27.3 328.58-19.9Q326.68-20.8 323.95-21.35 321.23-21.9 318.63-21.9L318.63-21.9Q316.58-21.9 315.78-21.5 314.98-21.1 314.98-20.25L314.98-20.25Q314.98-19.6 315.38-19.33 315.78-19.05 316.73-18.85L316.73-18.85 321.58-17.85Q325.98-16.95 327.93-14.9 329.88-12.85 329.88-8.8L329.88-8.8Q329.88-3.95 326.63-1.55 323.38 0.85 317.83 0.85L317.83 0.85ZM352.38-19.6L345.98-19.6 345.98-10.05Q345.98-8.4 346.53-7.73 347.08-7.05 348.53-7.05L348.53-7.05Q350.18-7.05 351.48-7.45L351.48-7.45 351.48-0.05Q349.78 0.3 348.6 0.48 347.43 0.65 346.08 0.65L346.08 0.65Q341.63 0.65 339.45-1.3 337.28-3.25 337.28-6.9L337.28-6.9 337.28-19.6 333.38-19.6 333.38-27.3 337.28-27.3 337.28-36.8 345.98-36.8 345.98-27.3 352.38-27.3 352.38-19.6Z" opacity="1" transform="matrix(1,0,0,1,0,0)" fill="#091627" class="wordmark-text-0" data-fill-palette-color="primary" id="text-0"></path></svg></g></svg></g></svg></g></svg></g><g><svg viewBox="0 0 86.86122682760285 84.11760205186664" height="84.11760205186664" width="86.86122682760285"><g><svg xmlns="http://www.w3.org/2000/svg" xmlns:xlink="http://www.w3.org/1999/xlink" version="1.1" baseProfile="tiny" x="0" y="0" viewBox="5.63 7.031 88.741 85.93800014476153" xml:space="preserve" height="84.11760205186664" width="86.86122682760285" class="icon-icon-0" data-fill-palette-color="accent" id="icon-0"><path d="M57.222 46.512L71.589 8.895S41.94 3.802 5.63 58.397C7.98 57.876 40.111 32.274 57.222 46.512" fill="#39cccc" data-fill-palette-color="accent"></path><path stroke="#39cccc" stroke-miterlimit="10" d="M94.371 16.902L88.058 7.032V7.031H88.057V7.032L76.786 10.228 59.21 56.366 45.529 46.215S42.896 52.97 44.414 55.781C45.472 57.741 54.885 63.242 60.496 66.397L55.63 81.941A5.682 5.682 0 0 0 57.555 92.969 5.68 5.68 0 0 0 62.598 84.673L69.3 69.738C75.592 71.098 86.286 73.225 88.377 72.463 91.378 71.364 93.973 64.527 93.973 64.527L76.917 63.085zM64.639 68.691L64.657 68.701z" fill="#39cccc" data-fill-palette-color="accent"></path></svg></g></svg></g></svg></g><defs></defs></svg><rect width="395.52" height="66.97568114961923" fill="none" stroke="none" visibility="hidden"></rect></g></svg></g></svg>