<svg xmlns="http://www.w3.org/2000/svg" xmlns:xlink="http://www.w3.org/1999/xlink" width="500" zoomAndPan="magnify" viewBox="0 0 375 374.999991" height="500" preserveAspectRatio="xMidYMid meet" version="1.0"><defs><clipPath id="d203bead1b"><path d="M 1.070312 34 L 247 34 L 247 219 L 1.070312 219 Z M 1.070312 34 " clip-rule="nonzero"/></clipPath><clipPath id="c48b3ea9c1"><path d="M 143 27.726562 L 330.910156 27.726562 L 330.910156 347.113281 L 143 347.113281 Z M 143 27.726562 " clip-rule="nonzero"/></clipPath><clipPath id="5940cb2bec"><path d="M 90 27.726562 L 330.910156 27.726562 L 330.910156 347.113281 L 90 347.113281 Z M 90 27.726562 " clip-rule="nonzero"/></clipPath></defs><g clip-path="url(#d203bead1b)"><path fill="#39cccc" d="M 192.832031 174.457031 L 246.230469 34.65625 C 246.230469 34.65625 136.03125 15.726562 1.070312 218.625 C 9.804688 216.691406 129.234375 121.542969 192.832031 174.457031 " fill-opacity="1" fill-rule="nonzero"/></g><g clip-path="url(#c48b3ea9c1)"><path fill="#39cccc" d="M 330.910156 64.414062 L 307.445312 27.730469 L 307.445312 27.726562 L 307.441406 27.726562 L 307.441406 27.730469 L 265.550781 39.609375 L 200.222656 211.078125 L 149.371094 173.351562 C 149.371094 173.351562 139.585938 198.457031 145.226562 208.902344 C 149.160156 216.1875 184.144531 236.632812 205 248.355469 L 186.914062 306.125 C 185.753906 306.542969 184.640625 307.058594 183.570312 307.671875 C 182.5 308.285156 181.492188 308.988281 180.542969 309.777344 C 179.597656 310.566406 178.726562 311.433594 177.929688 312.375 C 177.132812 313.316406 176.425781 314.320312 175.808594 315.386719 C 175.1875 316.453125 174.664062 317.566406 174.242188 318.722656 C 173.816406 319.882812 173.496094 321.066406 173.277344 322.28125 C 173.0625 323.496094 172.953125 324.71875 172.949219 325.953125 C 172.949219 327.1875 173.054688 328.410156 173.265625 329.625 C 173.476562 330.839844 173.792969 332.027344 174.214844 333.1875 C 174.632812 334.34375 175.152344 335.460938 175.765625 336.527344 C 176.382812 337.597656 177.085938 338.605469 177.875 339.550781 C 178.667969 340.496094 179.535156 341.363281 180.480469 342.160156 C 181.425781 342.953125 182.429688 343.65625 183.5 344.273438 C 184.566406 344.890625 185.679688 345.410156 186.839844 345.832031 C 187.996094 346.257812 189.183594 346.574219 190.398438 346.789062 C 191.613281 347.003906 192.835938 347.109375 194.070312 347.109375 C 194.519531 347.109375 194.972656 347.097656 195.421875 347.066406 C 195.871094 347.039062 196.320312 346.996094 196.765625 346.9375 C 197.214844 346.878906 197.660156 346.808594 198.101562 346.722656 C 198.542969 346.636719 198.984375 346.535156 199.421875 346.421875 C 199.855469 346.308594 200.289062 346.179688 200.714844 346.039062 C 201.144531 345.898438 201.566406 345.742188 201.984375 345.574219 C 202.402344 345.402344 202.816406 345.222656 203.222656 345.027344 C 203.628906 344.832031 204.027344 344.621094 204.421875 344.402344 C 204.8125 344.179688 205.199219 343.949219 205.578125 343.703125 C 205.957031 343.457031 206.324219 343.199219 206.6875 342.929688 C 207.050781 342.660156 207.402344 342.378906 207.746094 342.085938 C 208.089844 341.796875 208.421875 341.492188 208.746094 341.179688 C 209.070312 340.867188 209.386719 340.542969 209.6875 340.210938 C 209.992188 339.875 210.285156 339.53125 210.566406 339.179688 C 210.847656 338.828125 211.117188 338.46875 211.375 338.097656 C 211.632812 337.730469 211.878906 337.351562 212.113281 336.964844 C 212.347656 336.582031 212.570312 336.1875 212.78125 335.789062 C 212.988281 335.390625 213.183594 334.984375 213.367188 334.570312 C 213.550781 334.160156 213.722656 333.742188 213.878906 333.320312 C 214.035156 332.898438 214.175781 332.46875 214.304688 332.039062 C 214.433594 331.605469 214.550781 331.167969 214.648438 330.730469 C 214.75 330.289062 214.835938 329.847656 214.910156 329.402344 C 214.984375 328.957031 215.042969 328.511719 215.085938 328.0625 C 215.128906 327.613281 215.160156 327.164062 215.175781 326.714844 C 215.191406 326.261719 215.191406 325.8125 215.175781 325.363281 C 215.164062 324.910156 215.136719 324.460938 215.09375 324.011719 C 215.050781 323.5625 214.992188 323.117188 214.921875 322.671875 C 214.851562 322.226562 214.765625 321.785156 214.667969 321.34375 C 214.566406 320.90625 214.453125 320.46875 214.324219 320.035156 C 214.199219 319.605469 214.058594 319.175781 213.902344 318.753906 C 213.746094 318.328125 213.578125 317.910156 213.398438 317.5 C 213.214844 317.085938 213.023438 316.679688 212.8125 316.277344 L 237.722656 260.773438 C 261.109375 265.828125 300.859375 273.734375 308.632812 270.902344 C 319.785156 266.816406 329.429688 241.40625 329.429688 241.40625 L 266.035156 236.046875 Z M 220.398438 256.882812 L 220.46875 256.921875 Z M 220.398438 256.882812 " fill-opacity="1" fill-rule="nonzero"/></g><g clip-path="url(#5940cb2bec)"><path stroke-linecap="butt" transform="matrix(3.716865, 0, 0, 3.716435, -19.854257, 1.597262)" fill="none" stroke-linejoin="miter" d="M 94.37104 16.902435 L 88.057966 7.031795 L 88.057966 7.030744 L 88.056915 7.030744 L 88.056915 7.031795 L 76.786496 10.228112 L 59.21036 56.366079 L 45.529055 46.214801 C 45.529055 46.214801 42.896418 52.970057 44.413994 55.78063 C 45.472304 57.740884 54.884638 63.242208 60.495675 66.396483 L 55.629763 81.940824 C 55.31763 82.053289 55.018109 82.19203 54.730148 82.357049 C 54.442187 82.522068 54.171041 82.711261 53.915659 82.923578 C 53.661329 83.135895 53.426966 83.369234 53.212572 83.622543 C 52.998177 83.875852 52.807955 84.145978 52.641904 84.432921 C 52.474803 84.719865 52.333975 85.019421 52.220472 85.330539 C 52.105918 85.642708 52.01974 85.961184 51.960887 86.288068 C 51.903084 86.614952 51.873658 86.943938 51.872607 87.276078 C 51.872607 87.608217 51.900982 87.937204 51.957734 88.264088 C 52.014485 88.590972 52.099613 88.910499 52.213115 89.222668 C 52.325567 89.533786 52.465344 89.834393 52.630344 90.121337 C 52.796394 90.409331 52.985566 90.680508 53.197858 90.934868 C 53.411202 91.189228 53.644513 91.422567 53.898844 91.636986 C 54.153175 91.850354 54.423269 92.039548 54.71123 92.205617 C 54.998141 92.371687 55.297662 92.51148 55.609795 92.624996 C 55.920877 92.739563 56.240367 92.8247 56.567213 92.882509 C 56.89406 92.940318 57.223008 92.968697 57.555109 92.968697 C 57.675969 92.968697 57.797879 92.965544 57.918739 92.957136 C 58.039598 92.949778 58.160458 92.938216 58.280266 92.92245 C 58.401126 92.906684 58.520935 92.887765 58.639692 92.864641 C 58.75845 92.841517 58.877208 92.814189 58.994914 92.783708 C 59.11157 92.753227 59.228226 92.718542 59.34278 92.680703 C 59.458385 92.642864 59.571888 92.600821 59.68434 92.555625 C 59.796792 92.509378 59.908193 92.461028 60.017492 92.408475 C 60.126791 92.355921 60.233988 92.299163 60.340134 92.240303 C 60.445229 92.180392 60.549274 92.118378 60.651216 92.05216 C 60.753159 91.985943 60.851948 91.916572 60.949687 91.844048 C 61.047425 91.771524 61.142011 91.695846 61.234495 91.617016 C 61.326979 91.539236 61.41631 91.457252 61.503539 91.373166 C 61.590768 91.28908 61.675895 91.201841 61.756819 91.1125 C 61.838793 91.022107 61.917614 90.929613 61.993283 90.835016 C 62.068952 90.740419 62.141467 90.643721 62.21083 90.543869 C 62.280193 90.445068 62.346403 90.343113 62.40946 90.239057 C 62.472518 90.136052 62.532422 90.029893 62.589173 89.922683 C 62.644874 89.815474 62.697421 89.706162 62.746816 89.594748 C 62.796211 89.484385 62.842453 89.37192 62.884491 89.258404 C 62.926529 89.144888 62.964364 89.02927 62.999045 88.913652 C 63.033726 88.796983 63.065255 88.679262 63.091529 88.561542 C 63.118854 88.442771 63.141975 88.323999 63.161943 88.204177 C 63.181911 88.084354 63.197675 87.964532 63.209236 87.843658 C 63.220796 87.722785 63.229204 87.601911 63.233407 87.481037 C 63.237611 87.359113 63.237611 87.238239 63.233407 87.117366 C 63.230255 86.995441 63.222898 86.874567 63.211337 86.753694 C 63.199777 86.63282 63.184013 86.512998 63.165096 86.393175 C 63.146178 86.273353 63.123057 86.154581 63.096784 86.03581 C 63.069459 85.91809 63.038981 85.800369 63.0043 85.6837 C 62.970669 85.568082 62.932835 85.452464 62.890797 85.338948 C 62.848759 85.22438 62.803568 85.111915 62.755224 85.001553 C 62.705829 84.890139 62.654332 84.780827 62.597581 84.672566 L 69.299508 69.737849 C 75.591562 71.097939 86.286059 73.225314 88.377455 72.463285 C 91.377926 71.363861 93.972728 64.526621 93.972728 64.526621 L 76.916814 63.084547 Z M 64.638531 68.690978 L 64.657449 68.701489 Z M 64.638531 68.690978 " stroke="#39cccc" stroke-width="1" stroke-opacity="1" stroke-miterlimit="10"/></g></svg>